<svg width="127" height="120" viewBox="0 0 127 120" fill="none" xmlns="http://www.w3.org/2000/svg">
<ellipse cx="63.5" cy="60" rx="63.5" ry="60" fill="#D9D9D9"/>
<path d="M45.1136 69V51.5455H47.2273V67.125H55.3409V69H45.1136ZM63.6591 69.2727C62.4773 69.2727 61.4403 68.9915 60.5483 68.429C59.6619 67.8665 58.9688 67.0795 58.4688 66.0682C57.9744 65.0568 57.7273 63.875 57.7273 62.5227C57.7273 61.1591 57.9744 59.9687 58.4688 58.9517C58.9688 57.9347 59.6619 57.1449 60.5483 56.5824C61.4403 56.0199 62.4773 55.7386 63.6591 55.7386C64.8409 55.7386 65.875 56.0199 66.7614 56.5824C67.6534 57.1449 68.3466 57.9347 68.8409 58.9517C69.3409 59.9687 69.5909 61.1591 69.5909 62.5227C69.5909 63.875 69.3409 65.0568 68.8409 66.0682C68.3466 67.0795 67.6534 67.8665 66.7614 68.429C65.875 68.9915 64.8409 69.2727 63.6591 69.2727ZM63.6591 67.4659C64.5568 67.4659 65.2955 67.2358 65.875 66.7756C66.4545 66.3153 66.8835 65.7102 67.1619 64.9602C67.4403 64.2102 67.5795 63.3977 67.5795 62.5227C67.5795 61.6477 67.4403 60.8324 67.1619 60.0767C66.8835 59.321 66.4545 58.7102 65.875 58.2443C65.2955 57.7784 64.5568 57.5455 63.6591 57.5455C62.7614 57.5455 62.0227 57.7784 61.4432 58.2443C60.8636 58.7102 60.4347 59.321 60.1562 60.0767C59.8778 60.8324 59.7386 61.6477 59.7386 62.5227C59.7386 63.3977 59.8778 64.2102 60.1562 64.9602C60.4347 65.7102 60.8636 66.3153 61.4432 66.7756C62.0227 67.2358 62.7614 67.4659 63.6591 67.4659ZM77.9453 74.1818C76.9737 74.1818 76.1385 74.0568 75.4396 73.8068C74.7408 73.5625 74.1584 73.2386 73.6925 72.8352C73.2322 72.4375 72.8658 72.0114 72.593 71.5568L74.1953 70.4318C74.3771 70.6705 74.6072 70.9432 74.8857 71.25C75.1641 71.5625 75.5447 71.8324 76.0277 72.0597C76.5163 72.2926 77.1555 72.4091 77.9453 72.4091C79.0021 72.4091 79.8743 72.1534 80.5618 71.642C81.2493 71.1307 81.593 70.3295 81.593 69.2386V66.5795H81.4226C81.2749 66.8182 81.0646 67.1136 80.7919 67.4659C80.5249 67.8125 80.1385 68.1222 79.6328 68.3949C79.1328 68.6619 78.4567 68.7955 77.6044 68.7955C76.5476 68.7955 75.5987 68.5455 74.7578 68.0455C73.9226 67.5455 73.2607 66.8182 72.772 65.8636C72.2891 64.9091 72.0476 63.75 72.0476 62.3864C72.0476 61.0455 72.2834 59.8778 72.755 58.8835C73.2266 57.8835 73.8828 57.1108 74.7237 56.5653C75.5646 56.0142 76.5362 55.7386 77.6385 55.7386C78.4908 55.7386 79.1669 55.8807 79.6669 56.1648C80.1726 56.4432 80.5589 56.7614 80.826 57.1193C81.0987 57.4716 81.3089 57.7614 81.4567 57.9886H81.6612V55.9091H83.6044V69.375C83.6044 70.5 83.3487 71.4148 82.8374 72.1193C82.3317 72.8295 81.6499 73.3494 80.7919 73.679C79.9396 74.0142 78.9908 74.1818 77.9453 74.1818ZM77.8771 66.9886C78.6839 66.9886 79.3658 66.804 79.9226 66.4347C80.4794 66.0653 80.9027 65.5341 81.1925 64.8409C81.4822 64.1477 81.6271 63.3182 81.6271 62.3523C81.6271 61.4091 81.4851 60.5767 81.201 59.8551C80.9169 59.1335 80.4964 58.5682 79.9396 58.1591C79.3828 57.75 78.6953 57.5455 77.8771 57.5455C77.0249 57.5455 76.3146 57.7614 75.7464 58.1932C75.1839 58.625 74.7607 59.2045 74.4766 59.9318C74.1982 60.6591 74.0589 61.4659 74.0589 62.3523C74.0589 63.2614 74.201 64.0653 74.4851 64.7642C74.7749 65.4574 75.201 66.0028 75.7635 66.4006C76.3317 66.7926 77.0362 66.9886 77.8771 66.9886ZM92.6044 69.2727C91.4226 69.2727 90.3857 68.9915 89.4936 68.429C88.6072 67.8665 87.9141 67.0795 87.4141 66.0682C86.9197 65.0568 86.6726 63.875 86.6726 62.5227C86.6726 61.1591 86.9197 59.9687 87.4141 58.9517C87.9141 57.9347 88.6072 57.1449 89.4936 56.5824C90.3857 56.0199 91.4226 55.7386 92.6044 55.7386C93.7862 55.7386 94.8203 56.0199 95.7067 56.5824C96.5987 57.1449 97.2919 57.9347 97.7862 58.9517C98.2862 59.9687 98.5362 61.1591 98.5362 62.5227C98.5362 63.875 98.2862 65.0568 97.7862 66.0682C97.2919 67.0795 96.5987 67.8665 95.7067 68.429C94.8203 68.9915 93.7862 69.2727 92.6044 69.2727ZM92.6044 67.4659C93.5021 67.4659 94.2408 67.2358 94.8203 66.7756C95.3999 66.3153 95.8288 65.7102 96.1072 64.9602C96.3857 64.2102 96.5249 63.3977 96.5249 62.5227C96.5249 61.6477 96.3857 60.8324 96.1072 60.0767C95.8288 59.321 95.3999 58.7102 94.8203 58.2443C94.2408 57.7784 93.5021 57.5455 92.6044 57.5455C91.7067 57.5455 90.968 57.7784 90.3885 58.2443C89.8089 58.7102 89.38 59.321 89.1016 60.0767C88.8232 60.8324 88.6839 61.6477 88.6839 62.5227C88.6839 63.3977 88.8232 64.2102 89.1016 64.9602C89.38 65.7102 89.8089 66.3153 90.3885 66.7756C90.968 67.2358 91.7067 67.4659 92.6044 67.4659Z" fill="black"/>
</svg>
